<?xml version="1.0" encoding="utf-8"?>
<!-- Generator: Adobe Illustrator 16.0.0, SVG Export Plug-In . SVG Version: 6.00 Build 0)  -->
<!DOCTYPE svg PUBLIC "-//W3C//DTD SVG 1.1//EN" "http://www.w3.org/Graphics/SVG/1.1/DTD/svg11.dtd">
<svg version="1.1" id="Layer_1" xmlns:sketch="http://www.bohemiancoding.com/sketch/ns"
	 xmlns="http://www.w3.org/2000/svg" xmlns:xlink="http://www.w3.org/1999/xlink" x="0px" y="0px" width="53px" height="49.053px"
	 viewBox="0 0 53 49.053" enable-background="new 0 0 53 49.053" xml:space="preserve">
<g id="Group" transform="translate(112.000000, 8.000000)" sketch:type="MSShapeGroup">
</g>
<g transform="translate(480.000000, 191.000000)" sketch:type="MSShapeGroup">
	<circle id="Oval_43_" fill="#FFFFFF" stroke="#000000" stroke-width="2" cx="-450.5" cy="-165.72" r="23"/>
	<g transform="translate(0.000000, 0.555556)">
		<path id="Shape_177_" fill="none" stroke="#000000" stroke-width="2.2222" d="M-478.814-190.224v0.535"/>
		<path id="Shape_178_" fill="none" stroke="#000000" stroke-width="2" d="M-479.5-189.957h0.686"/>
		<path id="Shape_179_" fill="none" stroke="#000000" stroke-width="2" d="M-477.861-190.262h-0.389l-0.594,0.19"/>
		<path id="Shape_180_" fill="none" stroke="#000000" stroke-width="2" d="M-477.355-189.672h-0.953l-0.535-0.171"/>
		<ellipse id="Oval_44_" fill="none" stroke="#000000" stroke-width="2" cx="-477.355" cy="-189.671" rx="0.076" ry="0.05"/>
		<path id="Shape_181_" d="M-478.725-190.11l0.268-0.229l0.18,0.229H-478.725"/>
		<path id="Shape_182_" fill="none" stroke="#000000" stroke-width="2.2222" d="M-477.861-190.529v0.534"/>
		<path id="Shape_183_" fill="none" stroke="#000000" stroke-width="2" d="M-477.355-190.782v0.232l-0.537,0.173"/>
		<path id="Shape_184_" fill="none" stroke="#000000" stroke-width="2" d="M-477.355-189.131v-0.844l-0.537-0.172"/>
		<path id="Shape_185_" d="M-477.773-190.416l0.27-0.229l0.18,0.229H-477.773"/>
	</g>
</g>
</svg>
