<?xml version="1.0" encoding="utf-8"?>
<!-- Generator: Adobe Illustrator 16.0.0, SVG Export Plug-In . SVG Version: 6.00 Build 0)  -->
<!DOCTYPE svg PUBLIC "-//W3C//DTD SVG 1.1//EN" "http://www.w3.org/Graphics/SVG/1.1/DTD/svg11.dtd">
<svg version="1.1" id="Layer_1" xmlns:sketch="http://www.bohemiancoding.com/sketch/ns"
	 xmlns="http://www.w3.org/2000/svg" xmlns:xlink="http://www.w3.org/1999/xlink" x="0px" y="0px" width="53px" height="49.322px"
	 viewBox="0 0 53 49.322" enable-background="new 0 0 53 49.322" xml:space="preserve">
<g id="Group" transform="translate(112.000000, 8.000000)" sketch:type="MSShapeGroup">
</g>
<g transform="translate(480.000000, 127.000000)" sketch:type="MSShapeGroup">
	<circle id="Oval_40_" fill="#FFFFFF" stroke="#000000" stroke-width="2" cx="-450.5" cy="-101.434" r="23"/>
	<g transform="translate(0.000000, 0.555580)">
		<path id="Shape_159_" fill="none" stroke="#000000" stroke-width="2.2222" d="M-478.814-126.242v0.534"/>
		<path id="Shape_160_" fill="none" stroke="#000000" stroke-width="2" d="M-479.5-125.976h0.686"/>
		<path id="Shape_161_" fill="none" stroke="#000000" stroke-width="2" d="M-477.355-126.261h-0.953l-0.535,0.171"/>
		<path id="Shape_162_" d="M-478.25-125.67l-0.268-0.229l-0.178,0.229H-478.25"/>
		<path id="Shape_163_" fill="none" stroke="#000000" stroke-width="2.2222" d="M-477.861-125.938v0.535"/>
		<path id="Shape_164_" fill="none" stroke="#000000" stroke-width="2" d="M-478.844-125.861l0.596,0.189h0.389"/>
		<path id="Shape_165_" fill="none" stroke="#000000" stroke-width="2" d="M-477.355-126.8v0.844l-0.537,0.172"/>
		<ellipse id="Oval_41_" fill="none" stroke="#000000" stroke-width="2" cx="-477.355" cy="-126.261" rx="0.076" ry="0.05"/>
		<path id="Shape_166_" fill="none" stroke="#000000" stroke-width="2" d="M-477.355-125.151v-0.232l-0.537-0.172"/>
		<path id="Shape_167_" d="M-477.295-125.363l-0.27-0.229l-0.18,0.229H-477.295"/>
	</g>
</g>
</svg>
