<?xml version="1.0" encoding="utf-8"?>
<!-- Generator: Adobe Illustrator 16.0.0, SVG Export Plug-In . SVG Version: 6.00 Build 0)  -->
<!DOCTYPE svg PUBLIC "-//W3C//DTD SVG 1.1//EN" "http://www.w3.org/Graphics/SVG/1.1/DTD/svg11.dtd">
<svg version="1.1" id="Layer_1" xmlns:sketch="http://www.bohemiancoding.com/sketch/ns"
	 xmlns="http://www.w3.org/2000/svg" xmlns:xlink="http://www.w3.org/1999/xlink" x="0px" y="0px" width="83px" height="83px"
	 viewBox="0 0 83 83" enable-background="new 0 0 83 83" xml:space="preserve">
<g transform="translate(688.000000, 1680.000000)" sketch:type="MSShapeGroup">
	<circle id="Oval_76_" fill="#FFFFFF" stroke="#000000" stroke-width="3" cx="-646.5" cy="-1638.5" r="40"/>
	<path id="Shape_302_" fill="#FFFFFF" stroke="#000000" stroke-width="2" d="M-646.5-1678.5v16"/>
	<path id="Shape_303_" fill="#FFFFFF" stroke="#000000" stroke-width="4" d="M-662.5-1662.5h32"/>
</g>
<g id="Shape_304_" transform="translate(739.000000, 1746.500000) scale(-1, 1) translate(-739.000000, -1746.500000) translate(710.000000, 1741.000000)" sketch:type="MSShapeGroup">
	<path fill="none" stroke="#000000" stroke-width="3" d="M719.5-1696.158c4.361-5.484,10.988-8.684,18-8.684
		c7.008,0,13.636,3.197,18,8.684"/>
	<path fill="none" stroke="#000000" stroke-width="2" d="M697.5-1694.158h20l3-3"/>
</g>
<g id="Shape_305_" transform="translate(735.000000, 1720.500000) scale(-1, 1) translate(-735.000000, -1720.500000) translate(702.000000, 1720.000000)" sketch:type="MSShapeGroup">
	<path fill="none" stroke="#000000" stroke-width="3" stroke-dasharray="4" d="M711.5-1678.5h48"/>
	<path fill="none" stroke="#000000" stroke-width="2" d="M693.5-1678.5h18"/>
</g>
<g id="Shape_306_" transform="translate(735.000000, 1704.500000) scale(-1, 1) translate(-735.000000, -1704.500000) translate(702.000000, 1704.000000)" sketch:type="MSShapeGroup">
	<path fill="none" stroke="#000000" stroke-width="3" stroke-dasharray="4" d="M711.5-1662.5h48"/>
	<path fill="none" stroke="#000000" stroke-width="2" d="M693.5-1662.5h18"/>
</g>
</svg>
