<?xml version="1.0" encoding="utf-8"?>
<!-- Generator: Adobe Illustrator 16.0.0, SVG Export Plug-In . SVG Version: 6.00 Build 0)  -->
<!DOCTYPE svg PUBLIC "-//W3C//DTD SVG 1.1//EN" "http://www.w3.org/Graphics/SVG/1.1/DTD/svg11.dtd">
<svg version="1.1" id="Layer_1" xmlns:sketch="http://www.bohemiancoding.com/sketch/ns"
	 xmlns="http://www.w3.org/2000/svg" xmlns:xlink="http://www.w3.org/1999/xlink" x="0px" y="0px" width="48px" height="50px"
	 viewBox="0 0 48 50" enable-background="new 0 0 48 50" xml:space="preserve">
<g>
	<path id="Shape" stroke="#000000" stroke-width="2" d="M16.002,49h16"/>
	<g id="Shape_368_" transform="translate(1167.000000, 807.000000)" sketch:type="MSShapeGroup">
		<path fill="none" stroke="#000000" stroke-width="2" d="M-1152-806h4c1.113,1.677,2.99,2.685,5,2.685c2.014,0,3.891-1.008,5-2.685
			h4"/>
	</g>
	<g id="Shape_369_" transform="translate(1153.000000, 816.000000)" sketch:type="MSShapeGroup">
		<path fill="#FFFFFF" stroke="#000000" stroke-width="2" d="M-1145-804h-5c-1.104,0-2,0.896-2,2v6c0,1.104,0.896,2,2,2h5"/>
		<path fill="#FFFFFF" stroke="#000000" stroke-width="2" d="M-1145-807v16"/>
	</g>
	<g id="Shape_370_" transform="translate(1153.000000, 832.000000)" sketch:type="MSShapeGroup">
		<path fill="#FFFFFF" stroke="#000000" stroke-width="2" d="M-1145-804h-5c-1.104,0-2,0.896-2,2v6c0,1.104,0.896,2,2,2h5"/>
		<path fill="#FFFFFF" stroke="#000000" stroke-width="2" d="M-1145-807v16"/>
	</g>
	
		<g id="Shape_371_" transform="translate(1195.000000, 824.000000) scale(-1, -1) translate(-1195.000000, -824.000000) translate(1191.000000, 816.000000)" sketch:type="MSShapeGroup">
		<path fill="#FFFFFF" stroke="#000000" stroke-width="2" d="M1159,810h-5c-1.104,0-2,0.896-2,2v6c0,1.104,0.896,2,2,2h5"/>
		<path fill="#FFFFFF" stroke="#000000" stroke-width="2" d="M1159,807v16"/>
	</g>
	
		<g id="Shape_372_" transform="translate(1195.000000, 840.000000) scale(-1, -1) translate(-1195.000000, -840.000000) translate(1191.000000, 832.000000)" sketch:type="MSShapeGroup">
		<path fill="#FFFFFF" stroke="#000000" stroke-width="2" d="M1159,810h-5c-1.104,0-2,0.896-2,2v6c0,1.104,0.896,2,2,2h5"/>
		<path fill="#FFFFFF" stroke="#000000" stroke-width="2" d="M1159,807v16"/>
	</g>
	<g id="Shape_373_" transform="translate(1160.000000, 808.000000)" sketch:type="MSShapeGroup">
		<path fill="none" stroke="#000000" stroke-width="2" d="M-1152-799v-8h8"/>
	</g>
	
		<g id="Shape_374_" transform="translate(1188.000000, 812.000000) rotate(90.000000) translate(-1188.000000, -812.000000) translate(1184.000000, 808.000000)" sketch:type="MSShapeGroup">
		<path fill="none" stroke="#000000" stroke-width="2" d="M-807,1160v-8h8"/>
	</g>
	
		<g id="Shape_375_" transform="translate(1164.000000, 852.000000) rotate(-90.000000) translate(-1164.000000, -852.000000) translate(1160.000000, 848.000000)" sketch:type="MSShapeGroup">
		<path fill="none" stroke="#000000" stroke-width="2" d="M807-1144v-8h8"/>
	</g>
	
		<g id="Shape_376_" transform="translate(1188.000000, 852.000000) scale(-1, -1) translate(-1188.000000, -852.000000) translate(1184.000000, 848.000000)" sketch:type="MSShapeGroup">
		<path fill="none" stroke="#000000" stroke-width="2" d="M1152,815v-8h8"/>
	</g>
</g>
</svg>
