<?xml version="1.0" encoding="utf-8"?>
<!-- Generator: Adobe Illustrator 16.0.0, SVG Export Plug-In . SVG Version: 6.00 Build 0)  -->
<!DOCTYPE svg PUBLIC "-//W3C//DTD SVG 1.1//EN" "http://www.w3.org/Graphics/SVG/1.1/DTD/svg11.dtd">
<svg version="1.1" id="Layer_1" xmlns:sketch="http://www.bohemiancoding.com/sketch/ns"
	 xmlns="http://www.w3.org/2000/svg" xmlns:xlink="http://www.w3.org/1999/xlink" x="0px" y="0px" width="66px" height="14.334px"
	 viewBox="0 0 66 14.334" enable-background="new 0 0 66 14.334" xml:space="preserve">
<g id="Group" transform="translate(112.000000, 8.000000)" sketch:type="MSShapeGroup">
</g>
<g id="Shape_68_" transform="translate(56.000000, 722.000000)" sketch:type="MSShapeGroup">
	<path fill="none" stroke="#000000" stroke-width="2" d="M-55-708.166v-8c0-2.945,1.791-5.334,4-5.334s4,2.389,4,5.334
		c0-2.945,1.791-5.334,4-5.334s4,2.389,4,5.334c0-2.945,1.791-5.334,4-5.334s4,2.389,4,5.334c0-2.945,1.791-5.334,4-5.334
		s4,2.389,4,5.334c0-2.945,1.791-5.334,4-5.334s4,2.389,4,5.334c0-2.945,1.791-5.334,4-5.334s4,2.389,4,5.334
		c0-2.945,1.791-5.334,4-5.334s4,2.389,4,5.334c0-2.945,1.791-5.334,4-5.334s4,2.389,4,5.334v8"/>
</g>
</svg>
