<?xml version="1.0" encoding="utf-8"?>
<!-- Generator: Adobe Illustrator 16.0.0, SVG Export Plug-In . SVG Version: 6.00 Build 0)  -->
<!DOCTYPE svg PUBLIC "-//W3C//DTD SVG 1.1//EN" "http://www.w3.org/Graphics/SVG/1.1/DTD/svg11.dtd">
<svg version="1.1" id="Layer_1" xmlns:sketch="http://www.bohemiancoding.com/sketch/ns"
	 xmlns="http://www.w3.org/2000/svg" xmlns:xlink="http://www.w3.org/1999/xlink" x="0px" y="0px" width="48px" height="34px"
	 viewBox="0 0 48 34" enable-background="new 0 0 48 34" xml:space="preserve">
<g transform="translate(352.000000, 1480.000000)" sketch:type="MSShapeGroup">
	<circle id="Oval_65_" fill="#FFFFFF" stroke="#000000" stroke-width="2" cx="-328" cy="-1463" r="16"/>
	<path id="Shape_284_" fill="#FFFFFF" stroke="#000000" stroke-width="2" d="M-352-1463h16"/>
	<path id="Shape_285_" fill="#FFFFFF" stroke="#000000" stroke-width="2" d="M-304-1463h-16"/>
	<path id="Shape_286_" fill="#FFFFFF" stroke="#000000" stroke-width="2" d="M-332-1471c-3.032,1.514-4.949,4.609-4.949,8
		c0,3.391,1.917,6.486,4.949,8c0,0-3.032-1.514,0,0V-1471L-332-1471z"/>
	<path id="Shape_287_" fill="#FFFFFF" stroke="#000000" stroke-width="2" d="M-324-1471c3.031,1.514,4.947,4.609,4.947,8
		c0,3.391-1.916,6.486-4.947,8c0,0,3.031-1.514,0,0V-1471L-324-1471z"/>
</g>
</svg>
