<?xml version="1.0" encoding="utf-8"?>
<!-- Generator: Adobe Illustrator 16.0.0, SVG Export Plug-In . SVG Version: 6.00 Build 0)  -->
<!DOCTYPE svg PUBLIC "-//W3C//DTD SVG 1.1//EN" "http://www.w3.org/Graphics/SVG/1.1/DTD/svg11.dtd">
<svg version="1.1" id="Layer_1" xmlns:sketch="http://www.bohemiancoding.com/sketch/ns"
	 xmlns="http://www.w3.org/2000/svg" xmlns:xlink="http://www.w3.org/1999/xlink" x="0px" y="0px" width="83px" height="83px"
	 viewBox="0 0 83 83" enable-background="new 0 0 83 83" xml:space="preserve">
<g transform="translate(448.000000, 2208.000000)" sketch:type="MSShapeGroup">
	<g>
		<circle id="Oval_80_" fill="#FFFFFF" stroke="#000000" stroke-width="3" cx="-406.5" cy="-2166.5" r="40"/>
		<path id="Shape_322_" fill="#FFFFFF" stroke="#000000" stroke-width="2" d="M-406.5-2206.5v16"/>
		<path id="Shape_323_" fill="#FFFFFF" stroke="#000000" stroke-width="4" d="M-422.5-2190.5h32"/>
	</g>
	<g id="Shape_324_" transform="translate(24.000000, 66.000000)">
		<path fill="none" stroke="#000000" stroke-width="2" d="M-446.5-2192.5v-4c3.088-5.99,9.263-9.754,16-9.754
			c6.738,0,12.913,3.764,16,9.754v4"/>
	</g>
	<g id="Shape_325_" transform="translate(8.000000, 61.000000)">
		<path fill="none" stroke="#000000" stroke-width="3" d="M-432.5-2197.5c4.364-5.484,10.991-8.684,18-8.684
			c7.012,0,13.639,3.197,18,8.684"/>
		<path fill="none" stroke="#000000" stroke-width="2" d="M-446.5-2187.5v-6h10l5-5"/>
	</g>
	<g id="Shape_326_" transform="translate(0.000000, 56.000000)">
		<path fill="none" stroke="#000000" stroke-width="3" stroke-dasharray="4" d="M-428.5-2206.5h48"/>
		<path fill="none" stroke="#000000" stroke-width="2" d="M-446.5-2206.5h18"/>
	</g>
	
		<g id="Shape_327_" transform="translate(47.000000, 40.500000) scale(-1, 1) translate(-47.000000, -40.500000) translate(14.000000, 40.000000)">
		<path fill="none" stroke="#000000" stroke-width="3" stroke-dasharray="4" d="M464.5-2206.5h48"/>
		<path fill="none" stroke="#000000" stroke-width="2" d="M446.5-2206.5h18"/>
	</g>
	<g id="Shape_328_" transform="translate(0.000000, 24.000000)">
		<path fill="none" stroke="#000000" stroke-width="3" stroke-dasharray="4" d="M-428.5-2206.5h48"/>
		<path fill="none" stroke="#000000" stroke-width="2" d="M-446.5-2206.5h18"/>
	</g>
	<g transform="translate(62.500000, 47.500000) scale(-1, 1) translate(-62.500000, -47.500000) translate(53.000000, 24.000000)">
		<path id="Shape_329_" fill="none" stroke="#000000" d="M456.5-2206.5h-6c-6.984,15.652-1.967,34.062,12,44"/>
		<circle id="Oval_81_" cx="462.5" cy="-2162.5" r="2.5"/>
	</g>
</g>
</svg>
