<?xml version="1.0" encoding="utf-8"?>
<!-- Generator: Adobe Illustrator 16.0.0, SVG Export Plug-In . SVG Version: 6.00 Build 0)  -->
<!DOCTYPE svg PUBLIC "-//W3C//DTD SVG 1.1//EN" "http://www.w3.org/Graphics/SVG/1.1/DTD/svg11.dtd">
<svg version="1.1" id="Layer_1" xmlns:sketch="http://www.bohemiancoding.com/sketch/ns"
	 xmlns="http://www.w3.org/2000/svg" xmlns:xlink="http://www.w3.org/1999/xlink" x="0px" y="0px" width="68px" height="70px"
	 viewBox="0 0 68 70" enable-background="new 0 0 68 70" xml:space="preserve">
<g transform="translate(864.000000, 197.000000)" sketch:type="MSShapeGroup">
	<rect id="Rectangle_17_" x="-863.5" y="-194" fill="#FFFFFF" stroke="#000000" stroke-width="2" width="8" height="64"/>
	<path id="Shape_342_" fill="none" stroke="#000000" stroke-width="2" d="M-863.5-130h64"/>
	<path id="Shape_343_" fill="none" stroke="#000000" stroke-width="2" d="M-851.5-194l6,6l6-6h40"/>
	<path id="Shape_344_" fill="none" stroke="#000000" stroke-width="2" d="M-839.5-146l6-6l6,6h28"/>
	<path id="Shape_345_" fill="none" stroke="#000000" stroke-width="2" d="M-833.5-186v8h34"/>
	<path id="Shape_346_" d="M-833.5-193l4,8h-8l0,0L-833.5-193L-833.5-193z"/>
	<path id="Shape_347_" fill="none" stroke="#000000" stroke-width="2" d="M-817.5-154v-8h18"/>
	<path id="Shape_348_" d="M-817.5-147l4-8h-8l0,0L-817.5-147L-817.5-147z"/>
	<circle id="Oval_90_" cx="-799.5" cy="-194" r="3"/>
	<circle id="Oval_91_" cx="-799.5" cy="-178" r="3"/>
	<circle id="Oval_92_" cx="-799.5" cy="-162" r="3"/>
	<circle id="Oval_93_" cx="-799.5" cy="-146" r="3"/>
	<circle id="Oval_94_" cx="-799.5" cy="-130" r="3"/>
</g>
</svg>
