<?xml version="1.0" encoding="utf-8"?>
<!-- Generator: Adobe Illustrator 16.0.0, SVG Export Plug-In . SVG Version: 6.00 Build 0)  -->
<!DOCTYPE svg PUBLIC "-//W3C//DTD SVG 1.1//EN" "http://www.w3.org/Graphics/SVG/1.1/DTD/svg11.dtd">
<svg version="1.1" id="Layer_1" xmlns:sketch="http://www.bohemiancoding.com/sketch/ns"
	 xmlns="http://www.w3.org/2000/svg" xmlns:xlink="http://www.w3.org/1999/xlink" x="0px" y="0px" width="50px" height="37.75px"
	 viewBox="0 0 50 37.75" enable-background="new 0 0 50 37.75" xml:space="preserve">
<g transform="translate(480.000000, 1131.000000)" sketch:type="MSShapeGroup">
	<rect id="Rectangle_9_" x="-479" y="-1125.75" fill="#FFFFFF" stroke="#000000" stroke-width="2" width="48" height="16"/>
	<path id="Shape_251_" fill="none" stroke="#000000" stroke-width="2" d="M-471-1093.75v-24c1.602-17,4.802-17,6.401,0
		c1.599,17,4.8,17,6.4,0c1.6-17,4.801-17,6.398,0c1.602,17,4.8,17,6.4,0c1.6-17,4.799-17,6.396,0v24"/>
	<rect id="Rectangle_10_" x="-478" y="-1124.75" fill="#FFFFFF" width="10" height="14"/>
	<rect id="Rectangle_11_" x="-462" y="-1124.75" fill="#FFFFFF" width="8" height="14"/>
	<rect id="Rectangle_12_" x="-449" y="-1124.75" fill="#FFFFFF" width="8" height="14"/>
	<rect id="Rectangle_13_" x="-436" y="-1124.75" fill="#FFFFFF" width="4" height="14"/>
</g>
</svg>
